HIERARCHY
ROOT Hips
{
	OFFSET 0.000000 0.000000 0.000000
	CHANNELS 6 Xposition Yposition Zposition Zrotation Yrotation Xrotation 
	JOINT LeftUpLeg_virtual
	{
		OFFSET 0.000000 0.000000 0.000000
		CHANNELS 3 Zrotation Yrotation Xrotation
		JOINT LeftUpLeg
		{
			OFFSET 10.205400 -3.823500 0.155100
			CHANNELS 3 Zrotation Yrotation Xrotation
			JOINT LeftLeg
			{
				OFFSET 0.708757 -12.982077 0.567790
				CHANNELS 3 Zrotation Yrotation Xrotation
				JOINT LeftFoot
				{
					OFFSET -0.708756 -10.717838 -2.184338
					CHANNELS 3 Zrotation Yrotation Xrotation
					JOINT LeftToeBase
					{
						OFFSET 0.108149 -7.191104 7.560241
						CHANNELS 3 Zrotation Yrotation Xrotation
						End Site
						{
							OFFSET 0.000000 0.000000 0.000000
						}
					}
				}
			}
		}
	}
	JOINT RightUpLeg_virtual
	{
		OFFSET 0.000000 0.000000 0.000000
		CHANNELS 3 Zrotation Yrotation Xrotation
		JOINT RightUpLeg
		{
			OFFSET -10.205400 -3.823500 0.005500
			CHANNELS 3 Zrotation Yrotation Xrotation
			JOINT RightLeg
			{
				OFFSET -0.708756 -12.982134 0.610632
				CHANNELS 3 Zrotation Yrotation Xrotation
				JOINT RightFoot
				{
					OFFSET 0.708754 -10.717769 -1.945823
					CHANNELS 3 Zrotation Yrotation Xrotation
					JOINT RightToeBase
					{
						OFFSET -0.108140 -7.191069 7.372968
						CHANNELS 3 Zrotation Yrotation Xrotation
						End Site
						{
							OFFSET 0.000000 0.000000 0.000000
						}
					}
				}
			}
		}
	}
	JOINT Spine_virtual
	{
		OFFSET 0.000000 0.000000 0.000000
		CHANNELS 3 Zrotation Yrotation Xrotation
		JOINT Spine
		{
			OFFSET 0.000000 6.876099 0.125700
			CHANNELS 3 Zrotation Yrotation Xrotation
			JOINT Spine1
			{
				OFFSET 0.000000 8.022060 0.146608
				CHANNELS 3 Zrotation Yrotation Xrotation
				JOINT Spine2
				{
					OFFSET 0.000000 9.168068 0.167552
					CHANNELS 3 Zrotation Yrotation Xrotation
					JOINT Neck_virtual
					{
						OFFSET 0.000000 0.000000 0.000000
						CHANNELS 3 Zrotation Yrotation Xrotation
						JOINT Neck
						{
							OFFSET 0.000000 10.314075 0.188496
							CHANNELS 3 Zrotation Yrotation Xrotation
							JOINT Head
							{
								OFFSET 0.000000 7.643700 -2.377400
								CHANNELS 3 Zrotation Yrotation Xrotation
								End Site
								{
									OFFSET 0.000000 0.000000 0.000000
								}
							}
						}
					}
					JOINT LeftShoulder_virtual
					{
						OFFSET 0.000000 0.000000 0.000000
						CHANNELS 3 Zrotation Yrotation Xrotation
						JOINT LeftShoulder
						{
							OFFSET 4.392200 8.824978 0.174984
							CHANNELS 3 Zrotation Yrotation Xrotation
							JOINT LeftArm
							{
								OFFSET 8.771219 -2.981674 -0.026999
								CHANNELS 3 Zrotation Yrotation Xrotation
								JOINT LeftForeArm
								{
									OFFSET 8.512804 0.000000 -0.000000
									CHANNELS 3 Zrotation Yrotation Xrotation
									JOINT LeftHand
									{
										OFFSET 18.484802 0.000000 -0.000000
										CHANNELS 3 Zrotation Yrotation Xrotation
										End Site
										{
											OFFSET 0.000000 0.000000 0.000000
										}
									}
								}
							}
						}
					}
					JOINT RightShoulder_virtual
					{
						OFFSET 0.000000 0.000000 0.000000
						CHANNELS 3 Zrotation Yrotation Xrotation
						JOINT RightShoulder
						{
							OFFSET -4.392200 8.824993 0.141379
							CHANNELS 3 Zrotation Yrotation Xrotation
							JOINT RightArm
							{
								OFFSET -8.771282 -2.981682 -0.094208
								CHANNELS 3 Zrotation Yrotation Xrotation
								JOINT RightForeArm
								{
									OFFSET -8.494598 0.000000 0.000000
									CHANNELS 3 Zrotation Yrotation Xrotation
									JOINT RightHand
									{
										OFFSET -18.483803 0.000000 0.000001
										CHANNELS 3 Zrotation Yrotation Xrotation
										End Site
										{
											OFFSET 0.000000 0.000000 0.000000
										}
									}
								}
							}
						}
					}
				}
			}
		}
	}
}
MOTION
Frames: 14
Frame Time: 0.033333
23.991201 35.951721 -25.047873 -179.908426 -7.964421 179.507480 -4.796972 -0.734054 8.041879 -10.573052 -1.156305 -19.078617 16.923158 12.988433 21.872093 -0.377557 0.010233 6.446803 0.000000 0.000000 0.000000 0.810272 -0.213044 6.782698 -1.558745 1.397543 -24.067889 -11.654900 0.510830 19.459721 13.793561 11.899385 19.342653 0.000000 0.000000 0.000000 -2.289745 1.407547 -5.177029 0.903788 0.499574 -8.974981 -1.097920 -2.812480 11.217925 0.016982 -0.056259 -0.062430 -1.300287 -0.573103 14.295815 0.204733 -2.338451 24.610797 0.000000 0.000000 0.000000 0.230200 -0.477952 11.156360 -7.487557 -8.802843 2.297841 -47.389191 9.954824 15.392275 -164.367369 -82.973001 -178.966529 0.000000 0.000000 0.000000 -3.794158 1.125492 10.519073 26.847645 8.863255 2.819458 49.002475 -7.706056 11.355768 -170.827198 73.765401 -178.027091 0.000000 0.000000 0.000000 
23.916124 35.958691 -25.722137 -179.975211 -9.363622 179.541945 -4.891370 -0.874860 8.079602 -10.307437 -1.493641 -18.265652 16.830906 12.661298 22.347503 -0.238718 -0.936611 6.079506 0.000000 0.000000 0.000000 0.963032 -0.118677 6.551218 -3.198604 3.517694 -23.740199 -11.299220 2.251268 15.516790 16.128262 11.927349 20.599154 0.000000 0.000000 0.000000 -2.351954 1.184693 -5.298856 0.804663 0.560102 -9.294791 -1.107887 -2.834696 11.258337 -0.011564 -0.015215 -0.104312 -1.270184 -0.617982 14.291029 0.443252 -2.535285 24.829771 0.000000 0.000000 0.000000 0.340717 -0.434160 11.110473 -7.507402 -8.812792 2.565059 -46.642751 8.320352 16.225811 -162.693412 -82.775664 179.262509 0.000000 0.000000 0.000000 -3.833055 1.135655 10.458679 27.029229 9.111675 2.800071 48.669609 -7.177422 12.268539 -171.416848 73.420026 -178.582932 0.000000 0.000000 0.000000 
23.847412 35.964958 -26.375067 179.988885 -10.741055 179.598431 -4.964750 -1.209359 8.081349 -9.985457 -1.787769 -17.458320 16.700827 12.466852 22.751772 -0.046104 -1.803049 5.751268 0.000000 0.000000 0.000000 0.545192 -0.192703 6.459621 -3.684499 5.295822 -23.006362 -10.889060 2.942667 13.644788 17.377541 11.375493 21.394634 0.000000 0.000000 0.000000 -2.432115 1.099320 -5.462481 0.742103 0.610016 -9.587936 -1.095865 -2.892186 11.302366 0.045174 -0.038238 -0.085434 -1.247874 -0.693962 14.257324 0.740474 -2.599967 25.051536 0.000000 0.000000 0.000000 0.349587 -0.641874 11.072811 -7.527457 -8.857016 3.013324 -46.060846 6.936668 16.589659 -161.844802 -82.549700 178.320257 0.000000 0.000000 0.000000 -3.891102 1.034264 10.420382 27.300558 9.329110 2.769100 48.325395 -6.865509 12.963153 -171.425044 73.021197 -178.471108 0.000000 0.000000 0.000000 
23.819494 35.979553 -27.014225 -179.922100 -11.807707 179.619550 -4.832325 -1.610471 8.166855 -9.527564 -2.101940 -16.551068 16.373067 12.294576 23.138734 0.279887 -2.492123 5.313688 0.000000 0.000000 0.000000 0.201789 -0.306460 6.418649 -3.572103 6.538464 -22.144464 -10.353349 3.555652 13.142530 18.117299 10.899963 21.536922 0.000000 0.000000 0.000000 -2.408512 0.996496 -5.691478 0.779759 0.617980 -9.837682 -1.117790 -3.040355 11.238153 -0.003475 -0.107459 -0.068085 -1.260831 -0.856721 14.288506 0.893923 -2.528993 25.279536 0.000000 0.000000 0.000000 0.407816 -0.565344 11.158311 -7.565824 -8.624497 3.187302 -45.592916 6.155985 16.781331 -160.213070 -82.321688 176.588162 0.000000 0.000000 0.000000 -3.893812 1.096336 10.515256 27.590681 9.628198 2.719305 47.917807 -6.650260 13.367910 -171.392163 72.694537 -178.253539 0.000000 0.000000 0.000000 
23.823465 36.006763 -27.645605 -179.833184 -12.272214 179.773612 -4.792401 -1.913769 8.331998 -8.984848 -2.286322 -15.567654 15.930291 12.076261 23.367122 0.728839 -2.981915 4.813246 0.000000 0.000000 0.000000 0.058235 -0.611862 6.479503 -3.107325 7.276856 -21.193934 -10.285245 3.970990 13.380118 18.084767 10.254988 20.797603 0.000000 0.000000 0.000000 -2.342625 0.904024 -6.125785 0.876580 0.862718 -10.141494 -1.120366 -2.952232 11.376227 0.000917 -0.066684 -0.051699 -1.281840 -0.720925 14.241390 0.939536 -2.678320 25.306863 0.000000 0.000000 0.000000 0.369915 -0.620850 11.115443 -7.633662 -8.454531 3.483825 -45.344332 5.615347 16.540956 -159.017964 -82.129118 175.240511 0.000000 0.000000 0.000000 -3.967466 1.048422 10.370319 27.984226 9.682718 2.738211 47.672565 -6.482610 13.552928 -171.791197 72.314443 -178.424089 0.000000 0.000000 0.000000 
23.862396 36.028595 -28.264450 -179.824797 -12.383897 179.879766 -4.794294 -2.400481 8.494828 -8.498669 -2.227904 -14.596958 15.495314 11.851754 23.366753 1.135463 -3.360871 4.128541 0.000000 0.000000 0.000000 0.035731 -0.772484 6.593648 -2.740853 7.872596 -20.274066 -10.204713 4.368589 13.657925 18.129081 9.748608 19.955354 0.000000 0.000000 0.000000 -2.359584 0.772166 -6.461359 0.984780 1.070284 -10.408577 -1.154854 -2.882578 11.445406 -0.023976 0.006617 -0.050238 -1.310669 -0.723711 14.300572 0.879249 -2.689848 25.289844 0.000000 0.000000 0.000000 0.372364 -0.558670 11.144122 -7.632317 -8.134234 3.546062 -45.036789 5.399438 16.190405 -158.632031 -81.941704 174.693836 0.000000 0.000000 0.000000 -4.057526 1.077773 10.406199 28.399541 9.846496 2.647287 47.424835 -6.205184 13.724702 -172.151353 71.934869 -178.526433 0.000000 0.000000 0.000000 
23.927582 36.037033 -28.856071 -179.725104 -12.445630 179.887621 -4.701971 -2.765755 8.705237 -7.969469 -2.032686 -13.513079 14.867134 11.721741 23.300398 1.547861 -3.555982 3.408583 0.000000 0.000000 0.000000 -0.008338 -0.801773 6.741148 -2.035707 8.186490 -19.278287 -10.322842 4.736897 13.762125 18.145806 9.301954 19.175848 0.000000 0.000000 0.000000 -2.372089 0.844126 -6.714123 1.165723 1.195057 -10.639734 -1.136903 -2.850651 11.440984 -0.003040 -0.115750 -0.100290 -1.369528 -0.690357 14.322190 0.742893 -2.621727 25.163119 0.000000 0.000000 0.000000 0.329681 -0.609838 11.152602 -7.607051 -7.976510 3.902725 -44.831050 4.949502 15.596547 -159.312154 -81.741197 175.137074 0.000000 0.000000 0.000000 -4.123901 1.128701 10.373718 28.861231 9.787303 2.441085 47.136488 -5.845341 13.932952 -172.710554 71.545323 -178.845881 0.000000 0.000000 0.000000 
24.001413 36.030083 -29.391500 -179.695734 -12.199138 179.815822 -4.665744 -2.585513 8.867503 -7.546041 -1.893264 -12.618610 14.534260 11.568924 23.387821 1.810094 -3.708059 2.972532 0.000000 0.000000 0.000000 0.003421 -0.693702 6.932193 -1.570297 8.478008 -18.334092 -10.326805 4.940360 13.607046 18.239310 8.947579 18.391625 0.000000 0.000000 0.000000 -2.418959 1.006573 -6.839444 1.380879 1.131742 -10.820264 -1.165183 -2.932573 11.453385 -0.025493 -0.026098 -0.127270 -1.399931 -0.690053 14.254101 0.491447 -2.515650 24.992268 0.000000 0.000000 0.000000 0.323509 -0.572037 11.090759 -7.443404 -7.894765 3.892222 -44.570632 4.484147 14.970170 -158.733788 -81.442137 174.293860 0.000000 0.000000 0.000000 -4.164549 1.111959 10.302044 29.367283 9.918882 2.402905 46.830103 -5.486936 14.227082 -173.215892 71.076560 -179.132926 0.000000 0.000000 0.000000 
24.078945 36.016552 -29.879747 -179.672976 -11.967519 179.979173 -4.713582 -2.285186 9.053817 -6.952122 -2.502412 -12.475582 14.145510 10.968779 24.055749 2.130992 -3.715220 3.008062 0.000000 0.000000 0.000000 -0.011949 -0.555130 7.135712 -1.086324 8.575379 -17.509484 -10.407229 5.006440 13.160311 18.272334 8.678942 17.709661 0.000000 0.000000 0.000000 -2.471473 1.136942 -7.032303 1.613337 1.112370 -11.071837 -1.173978 -2.933724 11.285542 -0.035883 -0.018244 -0.078458 -1.425432 -0.665767 14.125041 0.113266 -2.383370 24.644712 0.000000 0.000000 0.000000 0.339044 -0.575568 11.014884 -7.302137 -7.972448 3.990900 -44.391633 3.737400 14.415686 -158.570601 -81.128604 173.847371 0.000000 0.000000 0.000000 -4.167467 1.118402 10.143468 29.856748 9.967722 2.389100 46.495618 -5.121319 14.417981 -173.948990 70.634108 -179.691895 0.000000 0.000000 0.000000 
24.162458 36.011612 -30.304850 -179.686376 -11.707322 -179.965157 -4.739925 -1.846032 9.265381 -6.456955 -3.113366 -12.193621 13.751393 10.676756 24.176423 2.341023 -3.693078 3.263719 0.000000 0.000000 0.000000 -0.011498 -0.383511 7.396832 -0.554597 8.579385 -16.663184 -10.634557 5.052573 12.862974 18.205077 8.570922 16.873419 0.000000 0.000000 0.000000 -2.518961 1.239117 -7.105170 1.838904 1.121649 -11.243238 -1.150542 -2.897232 11.253699 -0.000038 0.040342 -0.029781 -1.418168 -0.687237 13.838602 -0.308759 -2.175939 24.248095 0.000000 0.000000 0.000000 0.341594 -0.609673 10.806987 -7.166556 -8.230816 4.116061 -44.290123 2.715067 13.762170 -158.476044 -80.900025 173.464279 0.000000 0.000000 0.000000 -4.201824 1.126373 9.841647 30.312619 9.966452 2.622139 46.081340 -5.012633 14.551706 -174.319473 70.264219 -179.935569 0.000000 0.000000 0.000000 
24.240965 36.014866 -30.655451 -179.651624 -11.523695 -179.943615 -4.730709 -1.502858 9.527180 -5.989518 -3.493500 -11.969656 13.387780 10.423991 24.176373 2.482019 -3.632240 3.353392 0.000000 0.000000 0.000000 0.110522 -0.182784 7.663015 -0.154412 8.695148 -15.952363 -10.956156 5.063025 12.546471 18.053298 8.530718 15.996675 0.000000 0.000000 0.000000 -2.538677 1.493593 -7.141345 2.017059 1.064468 -11.315434 -1.160985 -3.003105 11.087006 -0.005604 -0.016526 -0.038786 -1.438983 -0.678571 13.591849 -0.825711 -1.944043 23.781605 0.000000 0.000000 0.000000 0.372142 -0.571975 10.618126 -7.039334 -8.447195 4.118196 -44.231909 1.407026 12.783233 -158.151978 -80.666972 172.849535 0.000000 0.000000 0.000000 -4.162426 1.121473 9.651733 30.623256 10.014180 2.601386 45.563601 -5.525402 14.344275 -175.101612 70.136303 179.373212 0.000000 0.000000 0.000000 
24.308323 36.018345 -30.961639 -179.670052 -11.418508 179.991986 -4.768678 -1.116247 9.886990 -5.573707 -3.785663 -11.799202 13.088242 10.185935 24.218690 2.508323 -3.565827 3.516273 0.000000 0.000000 0.000000 0.159511 -0.069960 7.947601 0.250670 8.877410 -15.355343 -11.313819 5.081500 12.322708 17.799458 8.498741 15.195047 0.000000 0.000000 0.000000 -2.602700 1.573333 -7.085118 2.125711 0.930487 -11.232063 -1.119148 -2.958771 10.923814 0.001962 -0.008099 0.037623 -1.454028 -0.667982 13.274228 -1.432003 -1.707740 23.231041 0.000000 0.000000 0.000000 0.451444 -0.551929 10.359082 -6.925184 -8.689090 4.147153 -44.131334 -0.184210 11.125981 -157.766865 -80.346773 172.150574 0.000000 0.000000 0.000000 -4.137256 1.037142 9.377559 30.685718 10.170555 2.776229 44.847005 -6.892212 13.867371 -175.441906 70.301095 179.103830 0.000000 0.000000 0.000000 
24.373789 36.015461 -31.210562 -179.614564 -11.419801 -179.979077 -4.695068 -0.962551 10.163778 -5.180338 -3.868822 -11.748561 12.825247 10.042674 24.207389 2.406551 -3.480921 3.621344 0.000000 0.000000 0.000000 0.230243 0.080174 8.157611 0.817766 8.985654 -14.905397 -12.004940 5.103408 12.240632 17.672042 8.747023 14.354006 0.000000 0.000000 0.000000 -2.580211 1.621576 -7.077961 2.162311 0.820193 -11.108979 -1.108862 -2.960997 10.751306 -0.002874 -0.017318 -0.020311 -1.477615 -0.654045 13.075607 -2.007250 -1.429200 22.680640 0.000000 0.000000 0.000000 0.479379 -0.593512 10.175722 -6.792486 -8.894772 4.215334 -44.009241 -1.915886 8.608977 -158.196634 -80.032059 172.270963 0.000000 0.000000 0.000000 -4.047064 1.103280 9.192135 30.329827 10.040191 2.896248 43.827743 -9.696721 13.545380 -175.693489 70.783033 178.977089 0.000000 0.000000 0.000000 
24.446941 35.997086 -31.446005 -179.697974 -11.559509 -179.906336 -4.738376 -0.841430 10.408951 -4.829433 -3.990725 -11.769149 12.560598 9.956399 24.207350 2.119668 -3.446889 3.708473 0.000000 0.000000 0.000000 0.200187 0.241578 8.384384 1.172147 8.837089 -14.542813 -12.032819 5.098347 12.275056 17.117224 8.803979 13.642010 0.000000 0.000000 0.000000 -2.746427 1.808811 -7.065519 2.067587 0.576386 -10.907407 -1.096997 -3.048210 10.553235 -0.014599 -0.033952 -0.017716 -1.457194 -0.843501 12.828298 -2.569366 -1.171439 22.049688 0.000000 0.000000 0.000000 0.615100 -0.528793 9.951976 -6.580949 -8.974349 4.173492 -43.792642 -3.693946 5.397286 -159.407818 -79.558931 173.133766 0.000000 0.000000 0.000000 -3.973574 1.098407 8.996723 29.410207 9.955393 3.003104 42.468955 -14.115759 13.584122 -175.890130 71.394000 178.992320 0.000000 0.000000 0.000000 
